name analog
datacolumns 19
datarows 65
range 0.2415 0.2735
endheader
time	ground_force_vx	ground_force_vy	ground_force_vz	ground_force_px	ground_force_py	ground_force_pz	l_ground_force_vx	l_ground_force_vy	l_ground_force_vz	l_ground_force_px	l_ground_force_py	l_ground_force_pz	ground_torque_x	ground_torque_y	ground_torque_z	l_ground_torque_x	l_ground_torque_y	l_ground_torque_z
0.2415	-0.0	-0.0	-0.0	-0.0	-0.0	-0.0	4.490011692047119	5.1629486083984375	-779.8148803710938	-0.0	-0.0	-0.0	-0.0	-0.0	-0.0	249341.421875	-18397.365234375	759.637939453125
0.242	-0.0	-0.0	-0.0	-0.0	-0.0	-0.0	5.445558547973633	4.382033348083496	-780.728271484375	-0.0	-0.0	-0.0	-0.0	-0.0	-0.0	248608.234375	-19117.9375	1219.0655517578125
0.2425	-0.0	-0.0	-0.0	-0.0	-0.0	-0.0	6.223534107208252	3.152143239974976	-780.783203125	-0.0	-0.0	-0.0	-0.0	-0.0	-0.0	247457.78125	-19697.1484375	1732.557373046875
0.243	-0.0	-0.0	-0.0	-0.0	-0.0	-0.0	6.469162464141846	1.7254925966262815	-779.3867797851562	-0.0	-0.0	-0.0	-0.0	-0.0	-0.0	246362.59375	-19800.1875	2140.85009765625
0.2435	-0.0	-0.0	-0.0	-0.0	-0.0	-0.0	6.6943230628967285	0.312681496143341	-777.2649536132812	-0.0	-0.0	-0.0	-0.0	-0.0	-0.0	245058.0625	-20383.32421875	2375.652099609375
0.244	-0.0	-0.0	-0.0	-0.0	-0.0	-0.0	6.783184051513672	-1.5148917436599731	-776.0020141601562	-0.0	-0.0	-0.0	-0.0	-0.0	-0.0	243700.78125	-20481.50390625	2418.617431640625
0.2445	-0.0	-0.0	-0.0	-0.0	-0.0	-0.0	6.496523857116699	-3.2268099784851074	-774.3655395507812	-0.0	-0.0	-0.0	-0.0	-0.0	-0.0	242143.921875	-20350.23046875	2593.533935546875
0.245	-0.0	-0.0	-0.0	-0.0	-0.0	-0.0	6.366464614868164	-5.367002010345459	-773.504638671875	-0.0	-0.0	-0.0	-0.0	-0.0	-0.0	240900.671875	-20465.24609375	2791.58447265625
0.2455	-0.0	-0.0	-0.0	-0.0	-0.0	-0.0	6.585384845733643	-7.744035243988037	-771.7886962890625	-0.0	-0.0	-0.0	-0.0	-0.0	-0.0	239619.296875	-20409.083984375	2943.8623046875
0.246	-0.0	-0.0	-0.0	-0.0	-0.0	-0.0	5.930548191070557	-10.040164947509766	-770.228515625	-0.0	-0.0	-0.0	-0.0	-0.0	-0.0	238547.203125	-20445.77734375	3050.09033203125
0.2465	-0.0	-0.0	-0.0	-0.0	-0.0	-0.0	5.977519989013672	-12.079246520996094	-769.0787963867188	-0.0	-0.0	-0.0	-0.0	-0.0	-0.0	237313.703125	-20031.146484375	3203.212158203125
0.247	-0.0	-0.0	-0.0	-0.0	-0.0	-0.0	5.68561315536499	-13.648062705993652	-767.6511840820312	-0.0	-0.0	-0.0	-0.0	-0.0	-0.0	236189.671875	-19864.673828125	3115.301025390625
0.2475	-0.0	-0.0	-0.0	-0.0	-0.0	-0.0	5.711312294006348	-15.645638465881348	-767.4854125976562	-0.0	-0.0	-0.0	-0.0	-0.0	-0.0	235243.75	-19600.107421875	3073.838134765625
0.248	-0.0	-0.0	-0.0	-0.0	-0.0	-0.0	5.533863544464111	-16.814767837524414	-766.2048950195312	-0.0	-0.0	-0.0	-0.0	-0.0	-0.0	234637.859375	-19308.4140625	2959.006103515625
0.2485	-0.0	-0.0	-0.0	-0.0	-0.0	-0.0	4.959169387817383	-17.092201232910156	-767.4846801757812	-0.0	-0.0	-0.0	-0.0	-0.0	-0.0	233971.8125	-19157.015625	2965.589599609375
0.249	-0.0	-0.0	-0.0	-0.0	-0.0	-0.0	5.209038734436035	-17.252689361572266	-767.435302734375	-0.0	-0.0	-0.0	-0.0	-0.0	-0.0	233679.421875	-18990.779296875	2950.2880859375
0.2495	-0.0	-0.0	-0.0	-0.0	-0.0	-0.0	5.178921222686768	-17.00363540649414	-766.5069580078125	-0.0	-0.0	-0.0	-0.0	-0.0	-0.0	233180.5	-18865.9375	2961.62939453125
0.25	-0.0	-0.0	-0.0	-0.0	-0.0	-0.0	5.469545364379883	-17.441972732543945	-766.55615234375	-0.0	-0.0	-0.0	-0.0	-0.0	-0.0	232585.59375	-18677.61328125	2965.86376953125
0.2505	-0.0	-0.0	-0.0	-0.0	-0.0	-0.0	5.622400283813477	-17.731285095214844	-767.471923828125	-0.0	-0.0	-0.0	-0.0	-0.0	-0.0	232545.3125	-18313.810546875	2895.328369140625
0.251	-0.0	-0.0	-0.0	-0.0	-0.0	-0.0	5.44495153427124	-17.886444091796875	-765.5572509765625	-0.0	-0.0	-0.0	-0.0	-0.0	-0.0	232190.390625	-18344.353515625	2887.974609375
0.2515	-0.0	-0.0	-0.0	-0.0	-0.0	-0.0	5.732645034790039	-17.962711334228516	-765.4345092773438	-0.0	-0.0	-0.0	-0.0	-0.0	-0.0	231946.390625	-18117.8671875	3010.027099609375
0.252	-0.0	-0.0	-0.0	-0.0	-0.0	-0.0	5.586762428283691	-17.628957748413086	-766.558349609375	-0.0	-0.0	-0.0	-0.0	-0.0	-0.0	231795.140625	-17936.966796875	2888.11572265625
0.2525	-0.0	-0.0	-0.0	-0.0	-0.0	-0.0	5.643999099731445	-17.432716369628906	-766.8224487304688	-0.0	-0.0	-0.0	-0.0	-0.0	-0.0	231480.75	-17825.103515625	2981.122802734375
0.253	-0.0	-0.0	-0.0	-0.0	-0.0	-0.0	5.566976070404053	-17.41097068786621	-766.3419189453125	-0.0	-0.0	-0.0	-0.0	-0.0	-0.0	231281.03125	-17502.314453125	2910.508544921875
0.2535	-0.0	-0.0	-0.0	-0.0	-0.0	-0.0	5.433236122131348	-17.4888858795166	-766.1294555664062	-0.0	-0.0	-0.0	-0.0	-0.0	-0.0	231061.28125	-17385.755859375	2991.631591796875
0.254	-0.0	-0.0	-0.0	-0.0	-0.0	-0.0	5.533451080322266	-17.63202476501465	-765.64453125	-0.0	-0.0	-0.0	-0.0	-0.0	-0.0	230574.171875	-17060.0625	2902.708251953125
0.2545	-0.0	-0.0	-0.0	-0.0	-0.0	-0.0	4.957139492034912	-18.127857208251957	-763.9437255859375	-0.0	-0.0	-0.0	-0.0	-0.0	-0.0	230336.328125	-16743.390625	2850.23486328125
0.255	-0.0	-0.0	-0.0	-0.0	-0.0	-0.0	4.346828460693359	-17.896133422851562	-760.7144775390625	-0.0	-0.0	-0.0	-0.0	-0.0	-0.0	229661.09375	-16276.3271484375	2583.072998046875
0.2555	-0.0	-0.0	-0.0	-0.0	-0.0	-0.0	3.7258529663085938	-18.039684295654297	-758.226318359375	-0.0	-0.0	-0.0	-0.0	-0.0	-0.0	228941.078125	-15940.4912109375	2552.866455078125
0.256	-0.0	-0.0	-0.0	-0.0	-0.0	-0.0	2.8719942569732666	-17.366268157958984	-757.178955078125	-0.0	-0.0	-0.0	-0.0	-0.0	-0.0	228490.515625	-15566.2548828125	2129.751708984375
0.2565	-0.0	-0.0	-0.0	-0.0	-0.0	-0.0	1.7965031862258911	-16.99126625061035	-755.8255615234375	-0.0	-0.0	-0.0	-0.0	-0.0	-0.0	228353.3125	-15269.8955078125	1728.5819091796875
0.257	-0.0	-0.0	-0.0	-0.0	-0.0	-0.0	0.6317871809005737	-15.467795372009276	-755.3909301757812	-0.0	-0.0	-0.0	-0.0	-0.0	-0.0	228581.703125	-15057.8271484375	1427.8721923828125
0.2575	-0.0	-0.0	-0.0	-0.0	-0.0	-0.0	0.6433861255645752	-13.403512001037598	-757.2676391601562	-0.0	-0.0	-0.0	-0.0	-0.0	-0.0	229327.65625	-14795.20703125	1124.59814453125
0.258	-0.0	-0.0	-0.0	-0.0	-0.0	-0.0	0.0887107849121093	-11.748010635375977	-759.6187133789062	-0.0	-0.0	-0.0	-0.0	-0.0	-0.0	230582.734375	-14621.32421875	1027.801513671875
0.2585	-0.0	-0.0	-0.0	-0.0	-0.0	-0.0	0.022560603916645	-9.639057159423828	-761.9790649414062	-0.0	-0.0	-0.0	-0.0	-0.0	-0.0	232340.8125	-14507.9892578125	921.1810913085938
0.259	-0.0	-0.0	-0.0	-0.0	-0.0	-0.0	-0.1878539323806762	-7.1332831382751465	-766.6958618164062	-0.0	-0.0	-0.0	-0.0	-0.0	-0.0	233905.1875	-14765.908203125	795.4951171875
0.2595	-0.0	-0.0	-0.0	-0.0	-0.0	-0.0	-0.3321528136730194	-4.804277896881104	-769.6194458007812	-0.0	-0.0	-0.0	-0.0	-0.0	-0.0	235626.8125	-14794.7919921875	662.190673828125
0.26	-0.0	-0.0	-0.0	-0.0	-0.0	-0.0	-0.6209754943847656	-2.7833032608032227	-772.2245483398438	-0.0	-0.0	-0.0	-0.0	-0.0	-0.0	237084.25	-14977.8994140625	840.4702758789062
0.2605	-0.0	-0.0	-0.0	-0.0	-0.0	-0.0	0.1115308627486229	-0.5955318212509155	-775.4656982421875	-0.0	-0.0	-0.0	-0.0	-0.0	-0.0	238691.328125	-15524.9697265625	967.8247680664062
0.261	-0.0	-0.0	-0.0	-0.0	-0.0	-0.0	0.2661323547363281	1.5669957399368286	-778.8277587890625	-0.0	-0.0	-0.0	-0.0	-0.0	-0.0	239869.9375	-15741.6650390625	1160.8330078125
0.2615	-0.0	-0.0	-0.0	-0.0	-0.0	-0.0	0.6669155359268188	3.267902374267578	-779.3843383789062	-0.0	-0.0	-0.0	-0.0	-0.0	-0.0	240766.515625	-16249.4541015625	1236.2025146484375
0.262	-0.0	-0.0	-0.0	-0.0	-0.0	-0.0	1.2091143131256104	3.928602933883667	-781.8411254882812	-0.0	-0.0	-0.0	-0.0	-0.0	-0.0	241325.84375	-16604.498046875	1447.6922607421875
0.2625	-0.0	-0.0	-0.0	-0.0	-0.0	-0.0	1.452178120613098	4.675057888031006	-782.3723754882812	-0.0	-0.0	-0.0	-0.0	-0.0	-0.0	241820.28125	-17077.814453125	1433.8184814453125
0.263	-0.0	-0.0	-0.0	-0.0	-0.0	-0.0	1.6295621395111084	4.788473606109619	-780.8319702148438	-0.0	-0.0	-0.0	-0.0	-0.0	-0.0	242340.9375	-17693.072265625	1426.2491455078125
0.2635	-0.0	-0.0	-0.0	-0.0	-0.0	-0.0	1.830195903778076	5.234127044677734	-780.6657104492188	-0.0	-0.0	-0.0	-0.0	-0.0	-0.0	242531.421875	-18208.3046875	1499.9481201171875
0.264	-0.0	-0.0	-0.0	-0.0	-0.0	-0.0	2.063652515411377	5.564266204833984	-781.1439208984375	-0.0	-0.0	-0.0	-0.0	-0.0	-0.0	242621.171875	-18483.271484375	1582.867919921875
0.2645	-0.0	-0.0	-0.0	-0.0	-0.0	-0.0	2.0169687271118164	5.750154972076416	-780.574462890625	-0.0	-0.0	-0.0	-0.0	-0.0	-0.0	242864.03125	-18945.212890625	1626.599365234375
0.265	-0.0	-0.0	-0.0	-0.0	-0.0	-0.0	2.040348052978516	6.191651821136475	-781.3291015625	-0.0	-0.0	-0.0	-0.0	-0.0	-0.0	243448.578125	-19372.330078125	1383.2554931640625
0.2655	-0.0	-0.0	-0.0	-0.0	-0.0	-0.0	2.007744073867798	7.154056549072266	-780.7030029296875	-0.0	-0.0	-0.0	-0.0	-0.0	-0.0	243505.640625	-19940.5859375	1502.1651611328125
0.266	-0.0	-0.0	-0.0	-0.0	-0.0	-0.0	1.9931927919387815	7.516293048858643	-781.4721069335938	-0.0	-0.0	-0.0	-0.0	-0.0	-0.0	243913.09375	-20550.091796875	1511.314453125
0.2665	-0.0	-0.0	-0.0	-0.0	-0.0	-0.0	2.8476216793060303	8.157981872558594	-781.6574096679688	-0.0	-0.0	-0.0	-0.0	-0.0	-0.0	244308.875	-21173.54296875	1700.8841552734375
0.267	-0.0	-0.0	-0.0	-0.0	-0.0	-0.0	3.935776233673096	8.037273406982422	-781.9716796875	-0.0	-0.0	-0.0	-0.0	-0.0	-0.0	244524.84375	-22276.68359375	1914.20751953125
0.2675	-0.0	-0.0	-0.0	-0.0	-0.0	-0.0	4.589178562164307	7.739986419677734	-781.2735595703125	-0.0	-0.0	-0.0	-0.0	-0.0	-0.0	244529.609375	-23192.701171875	2168.55859375
0.268	-0.0	-0.0	-0.0	-0.0	-0.0	-0.0	6.242181777954102	7.748555660247803	-782.73046875	-0.0	-0.0	-0.0	-0.0	-0.0	-0.0	244728.140625	-24153.546875	2571.223876953125
0.2685	-0.0	-0.0	-0.0	-0.0	-0.0	-0.0	7.217973232269287	8.013466835021973	-782.0389404296875	-0.0	-0.0	-0.0	-0.0	-0.0	-0.0	245318.578125	-24987.904296875	2811.580322265625
0.269	-0.0	-0.0	-0.0	-0.0	-0.0	-0.0	8.419149398803711	7.972833156585693	-784.7654418945312	-0.0	-0.0	-0.0	-0.0	-0.0	-0.0	245604.71875	-25634.466796875	2925.91015625
0.2695	-0.0	-0.0	-0.0	-0.0	-0.0	-0.0	8.475647926330566	7.884586334228516	-784.6087036132812	-0.0	-0.0	-0.0	-0.0	-0.0	-0.0	245879.84375	-26128.2421875	2923.15234375
0.27	-0.0	-0.0	-0.0	-0.0	-0.0	-0.0	8.71778678894043	6.784518718719482	-785.3690795898438	-0.0	-0.0	-0.0	-0.0	-0.0	-0.0	245851.1875	-26077.681640625	2906.930419921875
0.2705	-0.0	-0.0	-0.0	-0.0	-0.0	-0.0	8.693656921386719	5.475944519042969	-785.3372192382812	-0.0	-0.0	-0.0	-0.0	-0.0	-0.0	245707.515625	-26248.25	2760.93798828125
0.271	-0.0	-0.0	-0.0	-0.0	-0.0	-0.0	8.572724342346191	4.7935309410095215	-785.3375244140625	-0.0	-0.0	-0.0	-0.0	-0.0	-0.0	245109.046875	-26286.576171875	2668.963623046875
0.2715	-0.0	-0.0	-0.0	-0.0	-0.0	-0.0	8.411026000976562	3.47658920288086	-785.0504150390625	-0.0	-0.0	-0.0	-0.0	-0.0	-0.0	244731.1875	-26174.005859375	2657.726806640625
0.272	-0.0	-0.0	-0.0	-0.0	-0.0	-0.0	8.467443466186523	2.320652961730957	-785.3685302734375	-0.0	-0.0	-0.0	-0.0	-0.0	-0.0	244640.046875	-26149.69921875	2600.7314453125
0.2725	-0.0	-0.0	-0.0	-0.0	-0.0	-0.0	8.38775634765625	1.7100909948349	-785.91015625	-0.0	-0.0	-0.0	-0.0	-0.0	-0.0	244223.609375	-26037.625	2441.40869140625
0.273	-0.0	-0.0	-0.0	-0.0	-0.0	-0.0	8.178401947021484	0.0883216857910156	-786.0072021484375	-0.0	-0.0	-0.0	-0.0	-0.0	-0.0	243893.359375	-26060.330078125	2435.770263671875
0.2735	-0.0	-0.0	-0.0	-0.0	-0.0	-0.0	7.4517059326171875	-1.131110668182373	-784.6698608398438	-0.0	-0.0	-0.0	-0.0	-0.0	-0.0	243473.859375	-25941.091796875	2229.815185546875
